<svg xmlns="http://www.w3.org/2000/svg" xmlns:xlink="http://www.w3.org/1999/xlink" viewBox="0 0 100 125" version="1.1" x="0px" y="0px"><title>Image</title><desc>Created with Sketch.</desc><g stroke="none" stroke-width="1" fill="none" fill-rule="evenodd"><path d="M9.36123348,60.8329477 C14.8508747,56.4864282 18.6926789,51.9813418 22.9249856,51.9813418 C31.101797,51.9813418 42.2658701,68.6935833 49.9044465,68.6935833 C55.8162811,68.6935833 62.3921589,63.9708427 71.0574272,63.9708427 C77.266172,63.9708427 85.8580549,72.0866493 91.0352423,75.2261905 L91.0352423,70.5829103 C86.2972714,67.2047131 77.5349188,60.4075973 70.4698444,60.4075973 C62.4126727,60.4075973 54.5359646,65.2231841 49.9044465,65.2231841 C47.0019654,65.2231841 42.2658701,61.5489946 42.2658701,60.4075973 C51.1023934,60.4104668 57.8890311,53.9163018 67.0097621,53.9163018 C74.5561339,53.9163018 84.2398656,59.2483799 91.0352423,60.7060729 L91.0352423,21.3869048 L9.36123348,21.3869048 L9.36123348,60.8329477 Z M6.17647059,17 L93.8235294,17 C94.4732762,17 95,17.530919 95,18.1858407 L95,82.8141593 C95,83.469081 94.4732762,84 93.8235294,84 L6.17647059,84 C5.52672382,84 5,83.469081 5,82.8141593 L5,18.1858407 C5,17.530919 5.52672382,17 6.17647059,17 Z M24.4401023,32.952381 C27.1100934,32.952381 29.2745488,35.1218012 29.2745488,37.7979167 C29.2745488,37.8019412 29.2745439,37.8059647 29.2745341,37.8099869 C30.7803369,37.9459858 31.9603524,39.2144118 31.9603524,40.7590774 C31.9603524,42.3098758 30.7709482,43.5822368 29.2565832,43.7097341 L29.2745488,43.7202381 L19.0684951,43.7202381 C16.9918354,43.7202381 15.30837,42.0329112 15.30837,39.9514881 C15.30837,37.8700649 16.9918354,36.1827381 19.0684951,36.1827381 C19.337401,36.1827381 19.599714,36.2110305 19.8526327,36.2648073 C20.4926292,34.3400671 22.3046809,32.952381 24.4401023,32.952381 Z M42.588461,40.5297619 C44.3048838,40.5297619 45.6963195,41.9760421 45.6963195,43.760119 L45.69631,43.7681659 C46.6643261,43.8588318 47.4229075,44.7044491 47.4229075,45.7342262 C47.4229075,46.7680918 46.6582905,47.6163324 45.6847701,47.7013307 L45.6963195,47.7083333 L39.1352849,47.7083333 C37.8002894,47.7083333 36.7180617,46.5834488 36.7180617,45.1958333 C36.7180617,43.8082179 37.8002894,42.6833333 39.1352849,42.6833333 C39.308153,42.6833333 39.4767828,42.7021949 39.6393734,42.7380461 C40.0507997,41.454886 41.2156901,40.5297619 42.588461,40.5297619 Z M72.7973568,41.327381 C68.8559414,41.327381 65.660793,38.113425 65.660793,34.1488095 C65.660793,30.184194 68.8559414,26.9702381 72.7973568,26.9702381 C76.7387722,26.9702381 79.9339207,30.184194 79.9339207,34.1488095 C79.9339207,38.113425 76.7387722,41.327381 72.7973568,41.327381 Z" fill="#000000" fill-rule="nonzero"/></g><text x="0" y="115" fill="#000000" font-size="5px" font-weight="bold" font-family="'Helvetica Neue', Helvetica, Arial-Unicode, Arial, Sans-serif">Created by MintSW</text><text x="0" y="120" fill="#000000" font-size="5px" font-weight="bold" font-family="'Helvetica Neue', Helvetica, Arial-Unicode, Arial, Sans-serif">from the Noun Project</text></svg>